<?xml version="1.0" encoding="UTF-8"?>
<svg id="Layer_1" data-name="Layer 1" xmlns="http://www.w3.org/2000/svg" viewBox="0 0 530.19 72.46">
  <defs>
    <style>
      .cls-1 {
        fill: #fff;
      }

      .cls-2 {
        fill: #1a1a1a;
      }
    </style>
  </defs>
  <g>
    <path class="cls-2" d="M481.02,4.59c.43-4.74,6.59-6.3,9.23-2.34,1.97,2.95,6.28,3.01,8.32,.11,2.75-3.89,8.85-2.16,9.16,2.59,.23,3.54,3.94,5.74,7.15,4.26,4.32-1.99,8.75,2.55,6.64,6.82-1.57,3.18,.54,6.94,4.07,7.26,4.74,.43,6.3,6.59,2.34,9.23-2.95,1.97-3.01,6.28-.11,8.32,3.89,2.75,2.16,8.85-2.59,9.16-3.54,.23-5.74,3.94-4.26,7.15,1.99,4.32-2.55,8.75-6.82,6.64-3.18-1.57-6.94,.54-7.26,4.07-.43,4.74-6.59,6.3-9.23,2.34-1.97-2.95-6.28-3.01-8.32-.11-2.75,3.89-8.85,2.16-9.16-2.59-.23-3.54-3.94-5.74-7.15-4.26-4.32,1.99-8.75-2.55-6.64-6.82,1.57-3.18-.54-6.94-4.07-7.26-4.74-.43-6.3-6.59-2.34-9.23,2.95-1.97,3.01-6.28,.11-8.32-3.89-2.75-2.16-8.85,2.59-9.16,3.54-.23,5.74-3.94,4.26-7.15-1.99-4.32,2.55-8.75,6.82-6.64,3.18,1.57,6.94-.54,7.26-4.07Z"/>
    <path class="cls-1" d="M480.06,29.2c0-1.82,.53-3.25,1.58-4.28,1.08-1.03,2.46-1.55,4.14-1.55s3.05,.52,4.1,1.55c1.08,1.03,1.62,2.46,1.62,4.28s-.54,3.29-1.62,4.32c-1.06,1.03-2.42,1.55-4.1,1.55s-3.06-.52-4.14-1.55c-1.06-1.03-1.58-2.47-1.58-4.32Zm23.11-5.4l-14.15,25.2h-4.9l14.11-25.2h4.93Zm-17.42,2.59c-1.32,0-1.98,.94-1.98,2.81s.66,2.84,1.98,2.84c.65,0,1.15-.23,1.51-.68,.36-.48,.54-1.2,.54-2.16,0-1.87-.68-2.81-2.05-2.81Zm10.12,17.17c0-1.85,.53-3.28,1.58-4.28,1.08-1.03,2.46-1.55,4.14-1.55s3.04,.52,4.07,1.55c1.06,1.01,1.58,2.44,1.58,4.28s-.53,3.29-1.58,4.32c-1.03,1.03-2.39,1.55-4.07,1.55s-3.08-.52-4.14-1.55c-1.06-1.03-1.58-2.47-1.58-4.32Zm5.69-2.81c-1.37,0-2.05,.94-2.05,2.81s.68,2.84,2.05,2.84,2.02-.95,2.02-2.84-.67-2.81-2.02-2.81Z"/>
  </g>
  <g>
    <path d="M7.84,36.16H3.71v8.2H0V23.03H7.5c2.46,0,4.36,.55,5.7,1.66s2.01,2.7,2.01,4.79c0,1.43-.34,2.62-1.03,3.58-.69,.96-1.65,1.7-2.88,2.22l4.79,8.88v.19h-3.97l-4.28-8.2Zm-4.13-2.99h3.81c1.25,0,2.23-.31,2.93-.94s1.05-1.49,1.05-2.59-.32-2.03-.97-2.65-1.62-.95-2.91-.97H3.71v7.15Z"/>
    <path d="M25.36,44.65c-2.26,0-4.08-.71-5.49-2.13s-2.1-3.31-2.1-5.68v-.44c0-1.58,.31-3,.92-4.24s1.47-2.21,2.57-2.91,2.33-1.04,3.69-1.04c2.16,0,3.83,.69,5,2.07s1.77,3.33,1.77,5.84v1.44h-10.36c.11,1.31,.54,2.34,1.31,3.11s1.73,1.14,2.89,1.14c1.63,0,2.96-.66,3.98-1.98l1.92,1.83c-.63,.95-1.48,1.68-2.54,2.2s-2.25,.78-3.57,.78Zm-.42-13.58c-.98,0-1.77,.34-2.37,1.03s-.98,1.64-1.15,2.86h6.78v-.26c-.08-1.19-.4-2.09-.95-2.7s-1.33-.92-2.31-.92Z"/>
    <path d="M33.85,36.32c0-2.46,.58-4.43,1.74-5.9s2.69-2.2,4.61-2.2c1.81,0,3.23,.63,4.26,1.89l.16-1.6h3.21v15.37c0,2.08-.65,3.72-1.94,4.92s-3.04,1.8-5.24,1.8c-1.16,0-2.3-.24-3.41-.73s-1.95-1.12-2.53-1.9l1.68-2.14c1.09,1.3,2.44,1.95,4.04,1.95,1.18,0,2.11-.32,2.8-.96s1.03-1.58,1.03-2.82v-1.07c-1.03,1.14-2.39,1.71-4.1,1.71-1.86,0-3.37-.74-4.55-2.21s-1.77-3.52-1.77-6.12Zm3.54,.31c0,1.59,.32,2.84,.97,3.76s1.55,1.37,2.7,1.37c1.44,0,2.5-.62,3.19-1.85v-6.97c-.67-1.2-1.73-1.8-3.16-1.8-1.17,0-2.08,.46-2.73,1.39s-.97,2.29-.97,4.1Z"/>
    <path d="M51.49,24.39c0-.55,.17-1,.52-1.36s.84-.54,1.49-.54,1.14,.18,1.49,.54,.53,.82,.53,1.36-.18,.98-.53,1.34-.85,.53-1.49,.53-1.14-.18-1.49-.53-.52-.8-.52-1.34Zm3.78,19.97h-3.56v-15.85h3.56v15.85Z"/>
    <path d="M68.03,40.05c0-.63-.26-1.12-.78-1.45s-1.39-.62-2.6-.88-2.22-.58-3.03-.97c-1.78-.86-2.67-2.1-2.67-3.74,0-1.37,.58-2.51,1.73-3.43s2.62-1.38,4.39-1.38c1.89,0,3.43,.47,4.59,1.41s1.75,2.15,1.75,3.65h-3.56c0-.68-.25-1.25-.76-1.71s-1.18-.68-2.02-.68c-.78,0-1.42,.18-1.91,.54s-.74,.84-.74,1.45c0,.55,.23,.97,.69,1.27s1.39,.61,2.78,.92,2.49,.67,3.29,1.1,1.39,.94,1.77,1.53,.58,1.32,.58,2.17c0,1.43-.59,2.58-1.77,3.46s-2.73,1.33-4.64,1.33c-1.3,0-2.46-.23-3.47-.7s-1.81-1.11-2.37-1.93-.85-1.7-.85-2.65h3.46c.05,.84,.37,1.49,.95,1.94s1.36,.68,2.33,.68,1.65-.18,2.14-.53,.73-.82,.73-1.4Z"/>
    <path d="M79.09,24.66v3.85h2.8v2.64h-2.8v8.85c0,.61,.12,1.04,.36,1.31s.67,.4,1.28,.4c.41,0,.83-.05,1.25-.15v2.75c-.81,.22-1.59,.34-2.34,.34-2.73,0-4.1-1.51-4.1-4.53v-8.98h-2.61v-2.64h2.61v-3.85h3.56Z"/>
    <path d="M91.58,44.65c-2.26,0-4.08-.71-5.49-2.13s-2.1-3.31-2.1-5.68v-.44c0-1.58,.31-3,.92-4.24s1.47-2.21,2.57-2.91,2.33-1.04,3.69-1.04c2.16,0,3.83,.69,5,2.07s1.77,3.33,1.77,5.84v1.44h-10.36c.11,1.31,.54,2.34,1.31,3.11s1.73,1.14,2.89,1.14c1.63,0,2.96-.66,3.98-1.98l1.92,1.83c-.63,.95-1.48,1.68-2.54,2.2s-2.25,.78-3.57,.78Zm-.42-13.58c-.98,0-1.77,.34-2.37,1.03s-.98,1.64-1.15,2.86h6.78v-.26c-.08-1.19-.4-2.09-.95-2.7s-1.33-.92-2.31-.92Z"/>
    <path d="M109,31.76c-.47-.08-.95-.12-1.45-.12-1.63,0-2.73,.62-3.3,1.88v10.84h-3.56v-15.85h3.4l.09,1.77c.86-1.38,2.05-2.07,3.57-2.07,.51,0,.93,.07,1.26,.21v3.34Z"/>
    <path d="M122.02,28.51l.1,1.83c1.17-1.42,2.71-2.12,4.61-2.12,3.3,0,4.98,1.89,5.04,5.67v10.47h-3.56v-10.27c0-1.01-.22-1.75-.65-2.23s-1.15-.73-2.13-.73c-1.44,0-2.5,.65-3.21,1.95v11.28h-3.56v-15.85h3.35Z"/>
    <path d="M134.74,36.29c0-1.55,.31-2.95,.92-4.2s1.48-2.2,2.59-2.87,2.39-1,3.84-1c2.14,0,3.87,.69,5.21,2.07s2.05,3.2,2.16,5.48v.83c.01,1.56-.29,2.96-.89,4.19s-1.46,2.18-2.58,2.86-2.41,1.01-3.87,1.01c-2.24,0-4.03-.74-5.37-2.23s-2.01-3.47-2.01-5.95v-.18Zm3.56,.31c0,1.63,.34,2.91,1.01,3.83s1.61,1.38,2.81,1.38,2.14-.47,2.81-1.41,1-2.31,1-4.12c0-1.6-.34-2.87-1.03-3.81s-1.62-1.41-2.81-1.41-2.08,.46-2.77,1.38-1.03,2.3-1.03,4.14Z"/>
    <path d="M166.41,39.45l2.52-10.94h3.47l-4.32,15.85h-2.93l-3.4-10.88-3.34,10.88h-2.93l-4.34-15.85h3.47l2.56,10.83,3.25-10.83h2.68l3.3,10.94Z"/>
    <path d="M191.72,44.36c-.16-.3-.29-.8-.41-1.48-1.13,1.18-2.52,1.77-4.16,1.77s-2.89-.45-3.9-1.36-1.51-2.03-1.51-3.37c0-1.69,.63-2.99,1.88-3.89s3.05-1.35,5.38-1.35h2.18v-1.04c0-.82-.23-1.48-.69-1.97s-1.16-.74-2.09-.74c-.81,0-1.47,.2-1.99,.61s-.78,.92-.78,1.55h-3.56c0-.87,.29-1.68,.86-2.44s1.36-1.35,2.35-1.78,2.1-.64,3.32-.64c1.86,0,3.33,.47,4.44,1.4s1.67,2.24,1.7,3.93v7.15c0,1.43,.2,2.56,.6,3.41v.25h-3.63Zm-3.91-2.56c.7,0,1.36-.17,1.98-.51s1.09-.8,1.4-1.38v-2.99h-1.92c-1.32,0-2.31,.23-2.97,.69s-1,1.11-1,1.95c0,.68,.23,1.23,.68,1.63s1.06,.61,1.82,.61Z"/>
    <path d="M201.78,28.51l.1,1.83c1.17-1.42,2.71-2.12,4.61-2.12,3.3,0,4.98,1.89,5.04,5.67v10.47h-3.56v-10.27c0-1.01-.22-1.75-.65-2.23s-1.15-.73-2.13-.73c-1.44,0-2.5,.65-3.21,1.95v11.28h-3.56v-15.85h3.35Z"/>
    <path d="M214.5,36.32c0-2.44,.57-4.4,1.7-5.88s2.65-2.22,4.56-2.22c1.68,0,3.04,.59,4.07,1.76v-8.12h3.56v22.5h-3.22l-.18-1.64c-1.06,1.29-2.49,1.93-4.26,1.93s-3.36-.75-4.5-2.24-1.72-3.53-1.72-6.09Zm3.56,.31c0,1.61,.31,2.87,.93,3.77s1.5,1.35,2.64,1.35c1.46,0,2.52-.65,3.19-1.95v-6.77c-.65-1.27-1.71-1.9-3.16-1.9-1.15,0-2.04,.46-2.67,1.37s-.94,2.29-.94,4.12Z"/>
    <path d="M251.06,38.87c0-.94-.33-1.66-.99-2.17s-1.85-1.02-3.57-1.54-3.09-1.09-4.1-1.73c-1.94-1.22-2.92-2.81-2.92-4.78,0-1.72,.7-3.13,2.1-4.25s3.22-1.67,5.46-1.67c1.48,0,2.81,.27,3.97,.82s2.08,1.33,2.74,2.34,1,2.13,1,3.36h-3.69c0-1.11-.35-1.98-1.05-2.61s-1.7-.94-3-.94c-1.21,0-2.15,.26-2.82,.78s-1,1.24-1,2.17c0,.78,.36,1.43,1.08,1.96s1.91,1.03,3.57,1.52,2.99,1.05,4,1.68,1.74,1.35,2.21,2.17,.7,1.77,.7,2.86c0,1.78-.68,3.19-2.04,4.24s-3.21,1.57-5.54,1.57c-1.54,0-2.96-.29-4.26-.86s-2.3-1.36-3.02-2.37-1.08-2.18-1.08-3.52h3.71c0,1.21,.4,2.15,1.2,2.81s1.95,1,3.44,1c1.29,0,2.26-.26,2.91-.78s.97-1.21,.97-2.07Z"/>
    <path d="M267.14,44.36c-.16-.3-.29-.8-.41-1.48-1.13,1.18-2.52,1.77-4.16,1.77s-2.89-.45-3.9-1.36-1.51-2.03-1.51-3.37c0-1.69,.63-2.99,1.88-3.89s3.05-1.35,5.38-1.35h2.18v-1.04c0-.82-.23-1.48-.69-1.97s-1.16-.74-2.09-.74c-.81,0-1.47,.2-1.99,.61s-.78,.92-.78,1.55h-3.56c0-.87,.29-1.68,.86-2.44s1.36-1.35,2.35-1.78,2.1-.64,3.32-.64c1.86,0,3.33,.47,4.44,1.4s1.67,2.24,1.7,3.93v7.15c0,1.43,.2,2.56,.6,3.41v.25h-3.63Zm-3.91-2.56c.7,0,1.36-.17,1.98-.51s1.09-.8,1.4-1.38v-2.99h-1.92c-1.32,0-2.31,.23-2.97,.69s-1,1.11-1,1.95c0,.68,.23,1.23,.68,1.63s1.06,.61,1.82,.61Z"/>
    <path d="M279.27,39.85l3.35-11.34h3.68l-5.49,15.85h-3.09l-5.54-15.85h3.69l3.4,11.34Z"/>
    <path d="M295.31,44.65c-2.26,0-4.08-.71-5.49-2.13s-2.1-3.31-2.1-5.68v-.44c0-1.58,.31-3,.92-4.24s1.47-2.21,2.57-2.91,2.33-1.04,3.69-1.04c2.16,0,3.83,.69,5,2.07s1.77,3.33,1.77,5.84v1.44h-10.36c.11,1.31,.54,2.34,1.31,3.11s1.73,1.14,2.89,1.14c1.63,0,2.96-.66,3.98-1.98l1.92,1.83c-.63,.95-1.48,1.68-2.54,2.2s-2.25,.78-3.57,.78Zm-.42-13.58c-.98,0-1.77,.34-2.37,1.03s-.98,1.64-1.15,2.86h6.78v-.26c-.08-1.19-.4-2.09-.95-2.7s-1.33-.92-2.31-.92Z"/>
    <path d="M321.5,42.81c-1.04,1.23-2.53,1.85-4.45,1.85-1.72,0-3.02-.5-3.9-1.51s-1.33-2.46-1.33-4.37v-10.27h3.56v10.22c0,2.01,.83,3.02,2.5,3.02s2.9-.62,3.5-1.86v-11.38h3.56v15.85h-3.35l-.09-1.55Z"/>
    <path d="M342.45,36.6c0,2.45-.56,4.41-1.67,5.87s-2.61,2.19-4.48,2.19c-1.74,0-3.13-.57-4.17-1.71v7.51h-3.56V28.51h3.28l.15,1.61c1.04-1.27,2.47-1.9,4.26-1.9,1.93,0,3.45,.72,4.55,2.16s1.65,3.44,1.65,6v.22Zm-3.54-.31c0-1.58-.31-2.84-.94-3.76s-1.53-1.39-2.7-1.39c-1.46,0-2.5,.6-3.13,1.8v7.03c.64,1.23,1.7,1.85,3.16,1.85,1.13,0,2.02-.46,2.66-1.37s.96-2.3,.96-4.15Z"/>
    <path d="M357.39,24.66v3.85h2.8v2.64h-2.8v8.85c0,.61,.12,1.04,.36,1.31s.67,.4,1.28,.4c.41,0,.83-.05,1.25-.15v2.75c-.81,.22-1.59,.34-2.34,.34-2.73,0-4.1-1.51-4.1-4.53v-8.98h-2.61v-2.64h2.61v-3.85h3.56Z"/>
    <path d="M361.8,36.29c0-1.55,.31-2.95,.92-4.2s1.48-2.2,2.59-2.87,2.39-1,3.84-1c2.14,0,3.87,.69,5.21,2.07,1.33,1.38,2.05,3.2,2.16,5.48v.83c.01,1.56-.29,2.96-.89,4.19-.6,1.23-1.46,2.18-2.58,2.86-1.12,.67-2.41,1.01-3.87,1.01-2.24,0-4.03-.74-5.37-2.23s-2.01-3.47-2.01-5.95v-.18Zm3.56,.31c0,1.63,.34,2.91,1.01,3.83s1.61,1.38,2.81,1.38,2.14-.47,2.81-1.41c.67-.94,1-2.31,1-4.12,0-1.6-.34-2.87-1.03-3.81-.69-.94-1.62-1.41-2.81-1.41s-2.08,.46-2.77,1.38-1.03,2.3-1.03,4.14Z"/>
    <path d="M401.13,44.36h-14.34v-2.45l7.1-7.75c1.03-1.14,1.75-2.1,2.19-2.86s.65-1.54,.65-2.31c0-1.02-.29-1.84-.86-2.46-.57-.62-1.34-.94-2.31-.94-1.15,0-2.05,.35-2.68,1.05s-.95,1.67-.95,2.89h-3.56c0-1.3,.29-2.47,.89-3.51s1.44-1.85,2.54-2.42c1.1-.58,2.37-.86,3.8-.86,2.07,0,3.7,.52,4.9,1.56,1.2,1.04,1.79,2.48,1.79,4.31,0,1.06-.3,2.18-.9,3.35-.6,1.17-1.58,2.49-2.95,3.98l-5.21,5.58h9.9v2.84Z"/>
    <path d="M417.74,35.38c0,3.07-.57,5.38-1.72,6.94-1.15,1.56-2.89,2.34-5.24,2.34s-4.04-.76-5.21-2.28-1.76-3.77-1.79-6.75v-3.69c0-3.07,.57-5.37,1.72-6.9,1.15-1.53,2.9-2.3,5.25-2.3s4.07,.75,5.22,2.24,1.74,3.73,1.77,6.71v3.69Zm-3.56-3.98c0-2-.27-3.47-.82-4.4s-1.42-1.4-2.61-1.4-2.02,.44-2.56,1.33-.83,2.26-.86,4.14v4.83c0,1.99,.28,3.48,.83,4.45s1.43,1.46,2.62,1.46,1.99-.45,2.53-1.35,.83-2.32,.86-4.24v-4.82Z"/>
    <path d="M420.75,27.13c0-1.29,.42-2.35,1.25-3.17s1.92-1.24,3.27-1.24,2.46,.41,3.29,1.24,1.24,1.91,1.24,3.24v1.05c0,1.28-.41,2.33-1.24,3.15s-1.91,1.23-3.26,1.23-2.41-.4-3.26-1.21c-.86-.81-1.28-1.89-1.28-3.26v-1.04Zm2.49,1.12c0,.68,.19,1.22,.56,1.64s.87,.62,1.49,.62,1.09-.21,1.46-.62,.56-.98,.56-1.7v-1.07c0-.68-.19-1.22-.56-1.65-.38-.42-.87-.63-1.49-.63s-1.11,.21-1.47,.64c-.37,.43-.55,.99-.55,1.68v1.09Zm2.78,14.51l-1.83-1.05,10.42-16.67,1.83,1.05-10.42,16.67Zm4.98-3.63c0-1.31,.42-2.37,1.27-3.18s1.93-1.22,3.25-1.22,2.41,.41,3.26,1.22c.84,.81,1.27,1.9,1.27,3.28v1.04c0,1.27-.41,2.32-1.22,3.14s-1.91,1.24-3.27,1.24-2.47-.41-3.3-1.22c-.84-.82-1.25-1.89-1.25-3.23v-1.07Zm2.49,1.13c0,.66,.19,1.21,.58,1.63,.38,.42,.88,.64,1.49,.64s1.12-.2,1.47-.61c.36-.41,.53-.97,.53-1.71v-1.1c0-.68-.19-1.23-.57-1.64s-.87-.62-1.46-.62-1.1,.21-1.47,.62-.56,.98-.56,1.7v1.08Z"/>
  </g>
</svg>