<svg width="42" height="38" viewBox="0 0 42 38" fill="none" xmlns="http://www.w3.org/2000/svg">
<path d="M6.73883 1.50491C10.8358 1.00267 15.0118 0.745972 19.251 0.745972C23.4901 0.745972 27.6661 1.00453 31.7631 1.50491C35.558 1.96994 38.2611 4.96663 38.4862 8.43765C37.8261 8.23048 37.142 8.0987 36.4485 8.04516C30.9164 7.61252 25.3557 7.61252 19.8236 8.04516C15.1678 8.40975 11.8468 12.1189 11.8468 16.293V24.2656C11.8449 25.7979 12.2925 27.3009 13.1403 28.6087C13.988 29.9165 15.2028 30.9781 16.6506 31.6764L11.4124 36.6095C11.2053 36.8043 10.9415 36.937 10.6545 36.9907C10.3674 37.0445 10.0698 37.0168 9.79939 36.9114C9.52897 36.8059 9.29779 36.6272 9.13505 36.398C8.97232 36.1688 8.88533 35.8994 8.88507 35.6236V28.1272C8.16873 28.0555 7.45327 27.9761 6.73883 27.8891C2.77412 27.4018 0 24.1521 0 20.4858V8.90827C0 5.24379 2.77412 1.99041 6.73883 1.50491Z" fill="white"/>
<path d="M28.1361 10.5117C25.4192 10.5117 22.728 10.6178 20.0684 10.8261C17.0278 11.0642 14.8085 13.4935 14.8085 16.2949V24.2656C14.8085 27.0688 17.0357 29.5 20.0803 29.7344C22.5345 29.9242 25.0164 30.0265 27.52 30.0413L33.013 35.2144C33.2201 35.4093 33.4838 35.5419 33.7709 35.5957C34.058 35.6494 34.3555 35.6218 34.626 35.5163C34.8964 35.4108 35.1276 35.2322 35.2903 35.003C35.4531 34.7738 35.54 34.5043 35.5403 34.2285V29.7828L36.1919 29.7344C39.2365 29.5019 41.4637 27.0688 41.4637 24.2656V16.293C41.4637 13.4935 39.2424 11.0642 36.2037 10.8242C33.5202 10.6152 30.8287 10.5109 28.1361 10.5117Z" fill="white"/>
</svg>
