<svg width="40" height="33" viewBox="0 0 40 33" fill="none" xmlns="http://www.w3.org/2000/svg">
<path d="M19.6669 11.3339C17.804 11.3339 16.0175 12.031 14.7003 13.272C13.3831 14.5129 12.6431 16.196 12.6431 17.951C12.6431 19.706 13.3831 21.3891 14.7003 22.63C16.0175 23.871 17.804 24.5681 19.6669 24.5681C21.5297 24.5681 23.3162 23.871 24.6334 22.63C25.9507 21.3891 26.6907 19.706 26.6907 17.951C26.6907 16.196 25.9507 14.5129 24.6334 13.272C23.3162 12.031 21.5297 11.3339 19.6669 11.3339Z" fill="white"/>
<path fill-rule="evenodd" clip-rule="evenodd" d="M14.6919 0.871747C18.006 0.704046 21.3273 0.704046 24.6414 0.871747C26.4526 0.963505 28.069 1.90402 29.0092 3.3245L30.547 5.64843C30.9965 6.32426 31.7551 6.78305 32.626 6.90128C33.349 6.99656 34.0683 7.10067 34.7837 7.21361C37.4659 7.63534 39.3333 9.84811 39.3333 12.3467V27.215C39.3333 28.619 38.7413 29.9654 37.6875 30.9582C36.6337 31.951 35.2045 32.5087 33.7143 32.5087H5.61904C4.12878 32.5087 2.69955 31.951 1.64578 30.9582C0.592005 29.9654 0 28.619 0 27.215V12.3467C0 9.84811 1.86739 7.63534 4.54955 7.21361C5.26504 7.10067 5.98428 6.99656 6.70539 6.89951C7.12797 6.84623 7.53305 6.70647 7.89221 6.49004C8.25137 6.27361 8.5559 5.98575 8.78444 5.64667L10.3241 3.32626C10.7895 2.617 11.4294 2.0238 12.1897 1.59686C12.95 1.16992 13.8083 0.920042 14.6919 0.871747ZM9.83332 17.951C9.83332 15.494 10.8693 13.1377 12.7134 11.4004C14.5575 9.66304 17.0587 8.68702 19.6666 8.68702C22.2746 8.68702 24.7758 9.66304 26.6199 11.4004C28.464 13.1377 29.5 15.494 29.5 17.951C29.5 20.408 28.464 22.7643 26.6199 24.5016C24.7758 26.239 22.2746 27.215 19.6666 27.215C17.0587 27.215 14.5575 26.239 12.7134 24.5016C10.8693 22.7643 9.83332 20.408 9.83332 17.951ZM32.3095 15.3042C32.6821 15.3042 33.0394 15.1647 33.3028 14.9165C33.5663 14.6683 33.7143 14.3317 33.7143 13.9807C33.7143 13.6297 33.5663 13.2931 33.3028 13.0449C33.0394 12.7967 32.6821 12.6573 32.3095 12.6573C31.9369 12.6573 31.5796 12.7967 31.3162 13.0449C31.0527 13.2931 30.9047 13.6297 30.9047 13.9807C30.9047 14.3317 31.0527 14.6683 31.3162 14.9165C31.5796 15.1647 31.9369 15.3042 32.3095 15.3042Z" fill="white"/>
</svg>
