<svg width="78" height="43" viewBox="0 0 78 43" fill="none" xmlns="http://www.w3.org/2000/svg">
    <path
        d="M18.5147 0.492065C15.4686 0.492065 12.5473 2.20598 10.3934 5.25678L3.36396 15.2133C1.21005 18.2641 0 22.4018 0 26.7163C0 35.7008 5.14214 42.9841 11.4853 42.9841C14.5314 42.9841 17.4527 41.2701 19.6066 38.2193L24.4689 31.3324C24.4689 31.3322 24.469 31.3325 24.4689 31.3324L38.636 11.2661C39.6647 9.80903 41.0599 8.99047 42.5147 8.99047C44.9503 8.99047 47.0152 11.2389 47.7311 14.3502L52.2022 8.01735C50.1625 3.49249 46.586 0.492065 42.5147 0.492065C39.4686 0.492065 36.5473 2.20598 34.3934 5.25678L15.364 32.2101C14.3353 33.6672 12.9401 34.4857 11.4853 34.4857C8.45584 34.4857 6 31.0073 6 26.7163C6 24.6557 6.57791 22.6796 7.6066 21.2225L14.636 11.2661C15.6647 9.80903 17.0599 8.99047 18.5147 8.99047C20.9504 8.99047 23.0152 11.239 23.7311 14.3504L28.2023 8.01751C26.1626 3.49257 22.5861 0.492065 18.5147 0.492065Z"
        fill="url(#paint0_linear_4053_1416)" />
    <path
        d="M39.3641 32.2101C38.3354 33.6672 36.9402 34.4857 35.4854 34.4857C33.0501 34.4857 30.9854 32.2379 30.2693 29.127L25.7983 35.4598C27.8381 39.984 31.4144 42.9841 35.4854 42.9841C38.5315 42.9841 41.4528 41.2701 43.6067 38.2193L62.6361 11.2661C63.6648 9.80903 65.06 8.99048 66.5148 8.99048C69.5443 8.99048 72.0001 12.4689 72.0001 16.7599C72.0001 18.8204 71.4222 20.7966 70.3935 22.2537L63.3641 32.2101C62.3354 33.6672 60.9402 34.4857 59.4854 34.4857C57.0499 34.4857 54.9851 32.2375 54.2691 29.1263L49.7981 35.4592C51.8378 39.9839 55.4142 42.9841 59.4854 42.9841C62.5315 42.9841 65.4528 41.2701 67.6067 38.2193L74.6361 28.2629C76.79 25.2121 78.0001 21.0744 78.0001 16.7599C78.0001 7.7754 72.858 0.492065 66.5148 0.492065C63.4687 0.492065 60.5474 2.20598 58.3935 5.25678L39.3641 32.2101Z"
        fill="#F4F4F4" />
    <defs>
        <linearGradient id="paint0_linear_4053_1416" x1="1.63318e-07" y1="4.47708" x2="48.2971" y2="19.1789"
            gradientUnits="userSpaceOnUse">
            <stop stop-color="#E9D006" />
            <stop offset="1" stop-color="#B9E606" />
        </linearGradient>
    </defs>
</svg>