<svg width="58" height="30" viewBox="0 0 58 30" fill="none" xmlns="http://www.w3.org/2000/svg">
<path d="M13.7287 0C11.47 0 9.30385 1.19729 7.70673 3.32849L2.49438 10.2838C0.897255 12.415 0 15.3055 0 18.3195C0 24.5958 3.81291 29.6837 8.51638 29.6837C10.7751 29.6837 12.9412 28.4863 14.5383 26.3551L18.1437 21.5441C18.1438 21.5442 18.1437 21.544 18.1437 21.5441L28.6487 7.52639C29.4115 6.50855 30.446 5.93673 31.5247 5.93673C33.3307 5.93673 34.8619 7.50741 35.3927 9.68091L38.708 5.25694C37.1956 2.096 34.5436 0 31.5247 0C29.2661 0 27.0999 1.19729 25.5028 3.32849L11.3924 22.1573C10.6297 23.1751 9.59511 23.7469 8.51638 23.7469C6.27002 23.7469 4.44901 21.317 4.44901 18.3195C4.44901 16.88 4.87753 15.4995 5.64031 14.4817L10.8526 7.52639C11.6154 6.50855 12.65 5.93673 13.7287 5.93673C15.5348 5.93673 17.0658 7.50748 17.5967 9.68104L20.9121 5.25705C19.3996 2.09606 16.7476 0 13.7287 0Z" fill="#C5C5C5"/>
<path d="M29.1886 22.1573C28.4258 23.1751 27.3913 23.7469 26.3125 23.7469C24.5067 23.7469 22.9758 22.1767 22.4448 20.0035L19.1295 24.4274C20.642 27.5879 23.2939 29.6837 26.3125 29.6837C28.5712 29.6837 30.7374 28.4863 32.3345 26.3551L46.4448 7.52639C47.2076 6.50855 48.2422 5.93673 49.3209 5.93673C51.5673 5.93673 53.3883 8.36668 53.3883 11.3642C53.3883 12.8037 52.9597 14.1841 52.197 15.202L46.9846 22.1573C46.2219 23.1751 45.1873 23.7469 44.1086 23.7469C42.3026 23.7469 40.7716 22.1764 40.2407 20.003L36.9254 24.427C38.4379 27.5878 41.0898 29.6837 44.1086 29.6837C46.3673 29.6837 48.5334 28.4863 50.1305 26.3551L55.3429 19.3999C56.94 17.2687 57.8373 14.3782 57.8373 11.3642C57.8373 5.08792 54.0244 0 49.3209 0C47.0622 0 44.8961 1.19729 43.2989 3.32849L29.1886 22.1573Z" fill="#808080"/>
</svg>
