<svg width="40" height="39" viewBox="0 0 40 39" fill="none" xmlns="http://www.w3.org/2000/svg">
<path fill-rule="evenodd" clip-rule="evenodd" d="M0 19.6459C0 9.23926 8.95385 0.803833 20 0.803833C31.0462 0.803833 40 9.23926 40 19.6459C40 30.0524 31.0462 38.4879 20 38.4879C8.95385 38.4879 0 30.0524 0 19.6459ZM28.7672 17.7462C29.1265 17.9346 29.4259 18.2101 29.6343 18.5441C29.8427 18.878 29.9526 19.2584 29.9526 19.6459C29.9526 20.0333 29.8427 20.4137 29.6343 20.7477C29.4259 21.0816 29.1265 21.3571 28.7672 21.5455L17.2738 27.5614C16.9226 27.7451 16.5266 27.8392 16.125 27.8345C15.7233 27.8298 15.33 27.7263 14.9837 27.5345C14.6375 27.3426 14.3505 27.0689 14.151 26.7404C13.9514 26.412 13.8464 26.0402 13.8462 25.6618V13.6299C13.8462 11.9738 15.7354 10.9244 17.2738 11.7303L28.7672 17.7462Z" fill="white"/>
</svg>
